<svg xmlns="http://www.w3.org/2000/svg" xmlns:xlink="http://www.w3.org/1999/xlink" viewBox="0,0,256,256" width="96px" height="96px" fill-rule="nonzero"><g fill="#ffffff" fill-rule="nonzero" stroke="none" stroke-width="1" stroke-linecap="butt" stroke-linejoin="miter" stroke-miterlimit="10" stroke-dasharray="" stroke-dashoffset="0" font-family="none" font-weight="none" font-size="none" text-anchor="none" style="mix-blend-mode: normal"><g transform="scale(4,4)"><path d="M56.0293,8.00586c-0.23125,-0.02 -0.46992,0.03859 -0.66992,0.18359l-11.16992,7.98047c1.46,1.21 3.01149,2.5293 3.52148,3.0293c0.34,0.33 0.61961,0.72992 0.84961,1.16992l8.17969,-10.76953c0.3,-0.39 0.25992,-0.93883 -0.08008,-1.29883c-0.175,-0.175 -0.39961,-0.27492 -0.63086,-0.29492zM40.5957,8.05078c-0.09596,0.00913 -0.19364,0.03359 -0.29102,0.07422c-2.127,0.887 -5.5052,2.71602 -7.4082,5.91602c-15.425,2.919 -22.66262,14.40984 -25.01562,19.08984c-0.627,1.248 -0.7287,2.70581 -0.2207,4.00781c3.544,9.08 12.15091,14.90187 16.62891,17.42188c1.697,0.955 3.88938,0.08141 4.35938,-1.80859c0.42,-1.686 0.23377,-3.19636 0.13477,-4.69336c-0.193,-2.912 -0.05948,-5.7732 5.47852,-9.7832c3.612,4.959 9.82909,3.51005 9.87109,3.49805c0.102,0.066 1.02548,3.25538 4.77148,4.48437c1.993,0.654 3.84431,0.25323 4.94531,-0.13477c0.646,-0.228 1.11386,-0.78898 1.25586,-1.45898c0.291,-1.37 0.66633,-3.63784 0.73633,-3.96484c0.02,-0.097 1.04058,-2.98892 -1.98242,-4.79492c-6.016,-5.808 -7.11391,-10.71936 -7.12891,-10.81836c-0.015,-0.099 -0.229,-2.86009 -1.125,-3.74609c-0.896,-0.886 -6.10742,-5.16211 -6.10742,-5.16211l2.13477,-6.82617c0.2205,-0.70438 -0.36537,-1.36471 -1.03711,-1.30078zM40,25c1.105,0 2,0.895 2,2c0,1.105 -0.895,2 -2,2c-1.105,0 -2,-0.895 -2,-2c0,-1.105 0.895,-2 2,-2z"></path></g></g></svg>
