<svg xmlns="http://www.w3.org/2000/svg" xmlns:xlink="http://www.w3.org/1999/xlink" viewBox="0,0,256,256" width="128px" height="128px" fill-rule="nonzero"><g fill="#3db888" fill-rule="nonzero" stroke="none" stroke-width="1" stroke-linecap="butt" stroke-linejoin="miter" stroke-miterlimit="10" stroke-dasharray="" stroke-dashoffset="0" font-family="none" font-weight="none" font-size="none" text-anchor="none" style="mix-blend-mode: normal"><g transform="scale(2,2)"><path d="M65,27.5c-24.5,0 -44.5,20.2 -44.5,45c0,24.8 19.9,45 44.5,45c24.6,0 44.5,-20.2 44.5,-45c0,-24.8 -20,-45 -44.5,-45zM65,33.5c0.9,0 1.79922,-0.00039 2.69922,0.09961c12.2,5 21.50117,15.80039 24.70117,28.90039h-0.30078c-3.3,0 -6,2.7 -6,6c0,3.3 2.7,6 6,6c0.5,0 1,-0.09922 1.5,-0.19922c-0.7,16.8 -11.19883,30.99961 -25.79883,37.09961c-0.9,0.1 -1.80117,0.09961 -2.70117,0.09961c-21.3,0 -38.5,-17.5 -38.5,-39c0,-21.5 17.10039,-39 38.40039,-39zM62,44.5c-2.20914,0 -4,1.79086 -4,4c0,2.20914 1.79086,4 4,4c2.20914,0 4,-1.79086 4,-4c0,-2.20914 -1.79086,-4 -4,-4zM57,72.59961c-4.14214,0 -7.5,3.35786 -7.5,7.5c0,4.14214 3.35786,7.5 7.5,7.5c4.14214,0 7.5,-3.35786 7.5,-7.5c0,-4.14214 -3.35786,-7.5 -7.5,-7.5z"></path></g></g></svg>