<svg xmlns="http://www.w3.org/2000/svg" xmlns:xlink="http://www.w3.org/1999/xlink" viewBox="0,0,256,256" width="100px" height="100px" fill-rule="nonzero"><g fill="#3db888" fill-rule="nonzero" stroke="none" stroke-width="1" stroke-linecap="butt" stroke-linejoin="miter" stroke-miterlimit="10" stroke-dasharray="" stroke-dashoffset="0" font-family="none" font-weight="none" font-size="none" text-anchor="none" style="mix-blend-mode: normal"><g transform="scale(5.12,5.12)"><path d="M25.43945,2c-4.65976,0 -8.99429,1.35732 -12.64844,3.72656c-0.33531,0.21755 -0.50888,0.61385 -0.44141,1.00781c0.04475,0.26158 0.07031,0.51559 0.07031,0.76563c0,2.49773 -2.00227,4.5 -4.5,4.5c-0.24638,0 -0.49985,-0.02627 -0.75977,-0.07031c-0.39373,-0.06624 -0.78913,0.10804 -1.00586,0.44336c-2.36194,3.64998 -3.71484,7.97655 -3.71484,12.62695c0,12.64545 10.35455,23 23,23c11.25619,0 20.58985,-8.0546 22.54492,-18.75c0.06273,-0.34166 -0.05631,-0.69139 -0.31445,-0.92383c-0.89193,-0.80274 -1.42969,-1.94284 -1.42969,-3.32617c0,-1.38333 0.53775,-2.52343 1.42969,-3.32617c0.25814,-0.23244 0.37719,-0.58217 0.31445,-0.92383c-1.95507,-10.6954 -11.28873,-18.75 -22.54492,-18.75zM18.57617,5.18164c8.18587,2.86623 14.06055,10.65348 14.06055,19.81836c0,9.17482 -5.88699,16.96946 -14.08594,19.82813c-8.19422,-2.86656 -14.11133,-10.6846 -14.11133,-19.82812c0,-4.06251 1.18395,-7.79527 3.1582,-11.0293c0.11004,0.00639 0.20863,0.0293 0.32227,0.0293c3.57827,0 6.5,-2.92173 6.5,-6.5c0,-0.11671 -0.02261,-0.21895 -0.0293,-0.33203c1.315,-0.80436 2.71657,-1.47005 4.18555,-1.98633zM20.91992,14c-1.92381,0 -3.5,1.57619 -3.5,3.5c0,1.92381 1.57619,3.5 3.5,3.5c0.56667,0 1.01641,-0.15195 1.31641,-0.25195c0.34915,-0.10483 0.61361,-0.39133 0.6902,-0.74775c0.07659,-0.35641 -0.04682,-0.72627 -0.32209,-0.96528c-0.27527,-0.23901 -0.65878,-0.3093 -1.00092,-0.18346c-0.3,0.1 -0.45026,0.14844 -0.68359,0.14844c-0.87619,0 -1.5,-0.62381 -1.5,-1.5c0,-0.87619 0.62381,-1.5 1.5,-1.5c0.23333,0 0.38359,0.04844 0.68359,0.14844c0.34214,0.12584 0.72565,0.05555 1.00092,-0.18346c0.27527,-0.23901 0.39868,-0.60886 0.32209,-0.96528c-0.07659,-0.35641 -0.34105,-0.64292 -0.6902,-0.74775c-0.3,-0.1 -0.74974,-0.25195 -1.31641,-0.25195zM17.82031,28c-2.73264,0 -5,2.26735 -5,5c0,2.73265 2.26736,5 5,5c0.7041,0 1.40992,-0.13005 2.04688,-0.44922c0.33487,-0.15062 0.56027,-0.47263 0.58716,-0.83883c0.0269,-0.3662 -0.14904,-0.71768 -0.45831,-0.91561c-0.30927,-0.19793 -0.70213,-0.21047 -1.02339,-0.03267c-0.27705,0.13883 -0.71444,0.23633 -1.15234,0.23633c-1.60935,0 -3,-1.39065 -3,-3c0,-1.60935 1.39065,-3 3,-3c0.4379,0 0.8753,0.0975 1.15234,0.23633c0.32126,0.1778 0.71412,0.16526 1.02339,-0.03267c0.30927,-0.19793 0.4852,-0.54942 0.45831,-0.91561c-0.0269,-0.3662 -0.2523,-0.68821 -0.58716,-0.83883c-0.63696,-0.31917 -1.34277,-0.44922 -2.04688,-0.44922z"></path></g></g></svg>