<svg xmlns="http://www.w3.org/2000/svg" xmlns:xlink="http://www.w3.org/1999/xlink" viewBox="0,0,256,256" width="100px" height="100px" fill-rule="nonzero"><g fill="#ffffff" fill-rule="nonzero" stroke="none" stroke-width="1" stroke-linecap="butt" stroke-linejoin="miter" stroke-miterlimit="10" stroke-dasharray="" stroke-dashoffset="0" font-family="none" font-weight="none" font-size="none" text-anchor="none" style="mix-blend-mode: normal"><g transform="scale(5.12,5.12)"><path d="M24.14258,2l-1.16602,0.12695l0.02344,0.87305h-1.0293l-0.06836,0.82617l-2.01367,0.01953l-0.13672,-0.69922l-2.26367,0.19141l-0.48828,0.66211l-1.02148,-0.08984l-0.97852,1.08984h-1l0.13672,1.74609l1.0293,0.25391l0.05859,1.8125l-0.82422,-0.25391l-0.13672,1.33789h-1.09766l-0.89062,1.20898v1.01953l1.16601,0.82617l0.06836,1.14648l-1.50977,-0.06445v2.9668h1l-0.03906,1.17188l0.68359,0.31836l0.07031,0.95508l1.37109,0.89258l0.27539,-0.82617l0.75391,0.69922l0.61719,0.44531l-0.13672,1.40039l1.4043,0.94336l0.24219,-0.6875l0.61719,-0.19141l0.34375,-0.63672l0.61719,0.19141l0.13672,0.70117l1.04297,0.62305h1v12.58594l-2.58594,-2.58594h0.58594v-2l-0.625,-0.875l0.625,-1.125v-2l-3,-2l-2,1l-0.6875,-1h-0.91797l-0.39453,1h-2c-0.275,0 -1,1 -1,1v1l1,1l-1,1l-1,1l2,2l-1,1h2v1c0,0 0.667,0.75 1,1c0.625,-0.292 2,-1 2,-1l1,1l1,-1l0.125,-0.875l0.33984,-0.24609l4.53516,4.53516v2.58594c0,1.11667 -0.88333,2 -2,2h-2v5h14v-5h-2c-1.11667,0 -2,-0.88333 -2,-2v-0.19922l4.3125,-3.08203l0.56445,0.40625l0.12305,0.875l1,1l1,-1c0,0 1.375,0.708 2,1c0.333,-0.25 1,-1 1,-1v-1h2l-1,-1l2,-2l-1,-1l-1,-1l1,-1v-1c0,0 -0.725,-1 -1,-1h-2l-0.39453,-1h-0.91602l-0.68945,1l-2,-1l-3,2v2l0.625,1.125l-0.625,0.875v1.91406l-2,1.42773v-16.4668l0.05273,0.11719l0.94727,-0.99219l2,0.49023l0.61719,0.50977h1.38281v-1l0.47266,-0.98242l1.52734,-0.25391c0.206,-0.636 0.75391,-0.76367 0.75391,-0.76367l-0.50781,-1h0.75391l0.17773,-0.93555l0.82227,-0.06445l-0.03125,-5.53711l1.03125,-0.38086l-0.13672,-1.08203l-0.82422,0.12695v-0.67773h-1.50977l-0.13672,-1.27344l-0.82227,-0.06445v-0.82617l-0.96094,0.06445l0.07031,-0.70117l-0.61719,-0.31836l0.20508,-1.20898l-1.64648,-0.69922l-0.96094,-1.21094l-0.61523,0.69922l-0.96094,0.25391l-0.48047,-0.89062l-0.96289,-0.125l-0.54883,-1.01953l-1.30469,-0.06445l-0.13672,0.82617l-0.89062,-0.19141zM25.05078,4.80859l0.17969,0.03906l2.04883,0.4375l0.02734,-0.16602l0.02148,0.00391l0.74219,1.37891l1.52539,-0.4043l0.66211,-0.17578l0.11133,0.14063l0.46875,0.19922l0.19141,0.08203l-0.18555,1.09375l0.71094,0.36719l-0.16602,1.69531l1.18164,-0.07812v0.54102l1.01172,0.07813l0.15234,1.4082h1.23438v0.02539l0.01953,3.67383l-0.49219,0.03906l-0.15234,0.8125h-2.35742l1.04688,2.0625l-0.91406,0.15234l-0.44922,0.93555l-0.19141,0.39844h-0.00195l-2,-0.49023l-1.12305,-0.27734l-0.43555,0.45703l-1.65234,-0.2207l-1.41602,-0.18945l-0.63867,1.27734l-0.44727,0.89453h-1.76367h-0.27539l-0.17383,-0.88281l-1.14062,-0.35156l-0.61719,-0.19141l-1.57031,-0.48633l-0.06836,0.12891l-0.25195,-0.18359l-0.51562,-0.37305l-0.66406,-0.61523l-1.70312,-1.58008l0.00977,-0.30273l0.60938,0.02734l-0.13281,-2.21094l-0.07031,-1.14649l-0.05469,-0.93555h0.6875l0.07227,-0.70703l1.17188,0.36328l-0.08984,-2.80469l-0.05859,-1.8125l-0.02734,-0.91602l0.80664,0.07227l0.27539,-0.37305l0.02734,0.14258l1.66211,-0.01562l2.01367,-0.01953l1.82227,-0.01758l0.06836,-0.80859h1.24414zM26,21v20c0,2.19733 1.80267,4 4,4v1h-10v-1c2.19733,0 4,-1.80267 4,-4v-18h1zM16.85547,27.30859l1.14453,0.76172v0.41016l-0.37305,0.67188l-0.61328,1.10547l0.69922,0.97852l-0.19336,0.14063l-1.56445,1.125l-0.36328,0.26172l-0.21094,-0.21094l-1.29883,0.66992c-0.002,0.001 -0.03198,0.01697 -0.08398,0.04297v-1.26562h-1.17187l-0.41406,-0.41406l-0.58398,-0.58594l0.58594,-0.58594l1.41406,-1.41406l-1,-1h0.17188h0.94922l0.39063,0.56641l1.55469,-0.77734zM33.14453,31.30859l0.96094,0.48047l1.55664,0.77734l0.38867,-0.56641h0.94922h0.17188l-1,1l1.41406,1.41406l0.58594,0.58594l-0.58594,0.58594l-0.41406,0.41406h-1.17187v1.26563c-0.052,-0.027 -0.08198,-0.04197 -0.08398,-0.04297l-1.29883,-0.66992l-0.20898,0.21094l-0.36328,-0.26172l-1.56445,-1.125l-0.19336,-0.14062l0.69922,-0.97852l-0.61328,-1.10547l-0.37305,-0.66992v-0.41211z"></path></g></g></svg>
