<svg  xmlns="http://www.w3.org/2000/svg"  viewBox="0 0 50 50" width="150px" height="150px"><path  fill="white" d="M 48.90625 0 C 48.832031 0.0117188 48.757813 0.0351563 48.6875 0.0625 L 37.59375 3.75 C 37.425781 3.804688 37.273438 3.902344 37.15625 4.03125 L 13.75 29.65625 L 8.78125 26.1875 C 8.589844 26.050781 8.359375 25.984375 8.125 26 C 7.890625 26.015625 7.667969 26.117188 7.5 26.28125 L 5 28.6875 C 4.613281 29.078125 4.613281 29.703125 5 30.09375 L 9.4375 34.53125 L 4.3125 41.03125 C 1.925781 41.132813 0 43.089844 0 45.5 C 0 47.972656 2.027344 50 4.5 50 C 6.910156 50 8.867188 48.074219 8.96875 45.6875 L 15.46875 40.5625 L 19.90625 45 C 20.296875 45.386719 20.921875 45.386719 21.3125 45 L 23.71875 42.5 C 24.054688 42.152344 24.097656 41.613281 23.8125 41.21875 L 20.34375 36.25 L 45.96875 12.84375 C 46.097656 12.726563 46.195313 12.574219 46.25 12.40625 L 49.9375 1.3125 C 50.042969 0.992188 49.984375 0.644531 49.773438 0.378906 C 49.566406 0.113281 49.242188 -0.0273438 48.90625 0 Z M 47.4375 2.5625 L 44.40625 11.5625 L 19.15625 34.59375 L 17.71875 32.53125 C 17.652344 32.433594 17.566406 32.347656 17.46875 32.28125 L 15.40625 30.84375 L 38.4375 5.59375 Z M 8.3125 28.28125 L 13.15625 31.6875 C 13.265625 31.8125 13.40625 31.910156 13.5625 31.96875 L 16.1875 33.8125 L 18.0625 36.5 C 18.121094 36.632813 18.207031 36.75 18.3125 36.84375 L 21.71875 41.6875 L 20.59375 42.875 L 7.125 29.40625 Z M 10.875 35.96875 L 14.03125 39.125 L 8.5 43.5 C 8.0625 42.636719 7.363281 41.9375 6.5 41.5 Z M 4.5 43 C 5.890625 43 7 44.109375 7 45.5 C 7 46.890625 5.890625 48 4.5 48 C 3.109375 48 2 46.890625 2 45.5 C 2 44.109375 3.109375 43 4.5 43 Z"/></svg>
