<svg xmlns="http://www.w3.org/2000/svg" xmlns:xlink="http://www.w3.org/1999/xlink" viewBox="0,0,256,256" width="64px" height="64px" fill-rule="nonzero"><g fill="none" fill-rule="nonzero" stroke="none" stroke-width="1" stroke-linecap="butt" stroke-linejoin="miter" stroke-miterlimit="10" stroke-dasharray="" stroke-dashoffset="0" font-family="none" font-weight="none" font-size="none" text-anchor="none" style="mix-blend-mode: normal"><g transform="scale(4,4)"><path d="M40,47l1,1v1l2,1l1,-1l2,1l2,-1v-1h2l-1,-2l2,-2l-2,-2l1,-1v-2l-1,-1h-2l-1,-1l-1.015,-0.042l-0.722,1l-2.263,-0.958l-4,2v3l0.739,1.057l-0.739,1.034v1.909z" fill="#c24c4c"></path><path d="M38,39v3l0.739,1.057l-0.739,1.034v1.909l2,1l1,1v1l2,1l1,-1l2,1l2,-1v-1h1.375l-0.042,-2.333l-1.333,-0.667l-1,1l-2,-1v-1l-1,-1l-2,-1v-1.909l0.739,-1.034l-0.739,-1.057v-1z" fill="#bc665d"></path><path d="M25,44l1,-1v-1.909l-1,-1.091l1,-1v-3l-4,-2l-1.909,1.182l-0.813,-1.182h-1.085l-0.193,1h-3l-1,1v1l1,1l-2,3l2,2l-1,2h2v1l2,1l2,-1l1,1l2,-1v-2z" fill="#c24c4c"></path><path d="M26,36l-4,-2v2l-1,1l1,1.091v1.909l-1,1h-2v2l-2,1l-1,-1l-1.333,0.667l-0.667,1.333h2v1l2,1l2,-1l1,1l2,-1v-2h2l1,-1v-1.909l-1,-1.091l1,-1z" fill="#bc665d"></path><path d="M30,28v23c0,2.209 -1.791,4 -4,4h-1v4h14v-4h-1c-2.209,0 -4,-1.791 -4,-4v-23z" fill="#bd7c85"></path><path d="M26,56h12v2h-12z" fill="#9a6771"></path><path d="M35,28h1l1,1l1,-1h2l1,1h1l1,-2h1l1.457,-0.85l0.543,-1.15l-1,-1h1l1,-1h1v-6l1,-1v-1h-1l-0.02,-1.132l-1.98,0.132v-2h-1v-1h-1v-1h-1v-1l-2,-1l-1,-1l-1,1h-1v-1h-2v-2h-2v1h-1l-1,-1h-1v1h-2v1h-2v-1h-3l-1,1h-1l-2,2h-1l0.644,1.65l1.356,0.35v2h-1l-0.197,1.403h-1.358l-1.445,1.597v1l2,1v2h-2v3h1v1l1,1v1l2,1v-1l2,1v2l2,1v-1l0.487,-0.046l0.513,-0.954h1v1l1,1h5z" fill="#c24c4c"></path><path d="M38,8v-1h-2v-2h-2v1h-1l-1,-1h-1v1h-2v1h-2v-1h-3l-1,1h-1l-2,2h-1l0.644,1.65l1.356,0.35v2h-1l-0.197,1.403h-1.358l-1.445,1.597v1l2,1h2c1.657,0 3,-1.343 3,-3v0l1,-1v-2h1l1,-1h1l1,-1h3l1,1h3c1.657,0 3,-1.343 3,-3z" fill="#c93838"></path><path d="M48,15v7l-2,2v1.75l-5,3.25l-2,-1h-4l-2,2h-5v-2c0,-1.105 0.895,-2 2,-2v0l2,-2h1l1,1l1,-1h2l1,1h1l1,-2h1l1.457,-0.85l0.543,-1.15l-1,-1h1l1,-1h1v-2c0,-1.105 0.895,-2 2,-2z" fill="#bc665d"></path><path d="M39,60h-14c-0.553,0 -1,-0.448 -1,-1v-4c0,-0.552 0.447,-1 1,-1h1c1.654,0 3,-1.346 3,-3v-21h2v21c0,2.757 -2.243,5 -5,5v2h12v-2c-2.757,0 -5,-2.243 -5,-5v-22h2v22c0,1.654 1.346,3 3,3h1c0.553,0 1,0.448 1,1v4c0,0.552 -0.447,1 -1,1z" fill="#000000"></path><path d="M25,31c-0.153,0 -0.306,-0.035 -0.447,-0.105l-2,-1c-0.339,-0.17 -0.553,-0.516 -0.553,-0.895v-1.382l-0.158,-0.079c-0.079,0.125 -0.187,0.231 -0.316,0.312c-0.295,0.182 -0.662,0.198 -0.973,0.044l-2,-1c-0.339,-0.17 -0.553,-0.516 -0.553,-0.895v-0.586l-0.707,-0.707c-0.188,-0.187 -0.293,-0.442 -0.293,-0.707c-0.553,0 -1,-0.448 -1,-1v-3c0,-0.552 0.447,-1 1,-1h0.884l-0.039,-0.35l-1.349,-0.786c-0.307,-0.179 -0.496,-0.508 -0.496,-0.864v-1c0,-0.248 0.092,-0.487 0.259,-0.671l1.445,-1.597c0.189,-0.209 0.459,-0.329 0.741,-0.329h0.488l0.076,-0.542c0.07,-0.494 0.493,-0.861 0.991,-0.861v-0.225l-0.606,-0.157c-0.312,-0.081 -0.564,-0.305 -0.682,-0.605l-0.644,-1.65c-0.12,-0.308 -0.08,-0.655 0.106,-0.927c0.186,-0.273 0.496,-0.436 0.826,-0.436h0.586l1.707,-1.707c0.187,-0.188 0.441,-0.293 0.707,-0.293h0.586l0.707,-0.707c0.187,-0.188 0.441,-0.293 0.707,-0.293h3c0.553,0 1,0.448 1,1c0,-0.552 0.447,-1 1,-1h1c0,-0.552 0.447,-1 1,-1h1c0.266,0 0.52,0.105 0.707,0.293l0.356,0.356c0.142,-0.379 0.508,-0.649 0.937,-0.649h2c0.553,0 1,0.448 1,1v1h1c0.429,0 0.795,0.27 0.937,0.649l0.356,-0.356c0.391,-0.391 1.023,-0.391 1.414,0l0.886,0.885l1.854,0.927c0.339,0.17 0.553,0.516 0.553,0.895c0.553,0 1,0.448 1,1c0.553,0 1,0.448 1,1c0.553,0 1,0.448 1,1v0.931l0.914,-0.061c0.27,-0.021 0.542,0.076 0.743,0.261c0.201,0.185 0.318,0.445 0.323,0.719l0.02,0.15c0.553,0 1,0.448 1,1v1c0,0.265 -0.105,0.52 -0.293,0.707l-0.707,0.707v5.586c0,0.552 -0.447,1 -1,1h-0.586l-0.531,0.531c0.146,0.274 0.158,0.606 0.021,0.896l-0.543,1.149c-0.086,0.183 -0.226,0.334 -0.4,0.437l-1.457,0.851c-0.152,0.089 -0.327,0.136 -0.504,0.136h-0.382l-0.724,1.447c-0.169,0.339 -0.515,0.553 -0.894,0.553h-1c-0.266,0 -0.52,-0.105 -0.707,-0.293l-0.707,-0.707h-1.172l-0.707,0.707c-0.391,0.391 -1.023,0.391 -1.414,0l-0.707,-0.707h-0.172l-1.707,1.707c-0.187,0.188 -0.441,0.293 -0.707,0.293h-5c-0.266,0 -0.52,-0.105 -0.707,-0.293l-1,-1c-0.024,-0.024 -0.048,-0.05 -0.069,-0.077c-0.065,0.071 -0.141,0.132 -0.224,0.182v0.188c0,0.347 -0.18,0.668 -0.475,0.851c-0.16,0.099 -0.342,0.149 -0.525,0.149zM28.414,29h4.172l1.707,-1.707c0.187,-0.188 0.441,-0.293 0.707,-0.293h1c0.266,0 0.52,0.105 0.707,0.293l0.293,0.293l0.293,-0.293c0.187,-0.188 0.441,-0.293 0.707,-0.293h2c0.266,0 0.52,0.105 0.707,0.293l0.686,0.686l0.713,-1.426c0.169,-0.339 0.515,-0.553 0.894,-0.553h0.729l0.956,-0.558l0.109,-0.232l-0.502,-0.502c-0.286,-0.286 -0.372,-0.716 -0.217,-1.09c0.155,-0.374 0.521,-0.618 0.925,-0.618h0.586l0.707,-0.707c0.187,-0.188 0.441,-0.293 0.707,-0.293v-5c0,-0.265 0.105,-0.52 0.293,-0.707l0.356,-0.356c-0.374,-0.14 -0.642,-0.497 -0.649,-0.919l-0.001,-0.082l-0.933,0.062c-0.272,0.018 -0.547,-0.077 -0.75,-0.268c-0.202,-0.189 -0.316,-0.453 -0.316,-0.73v-1c-0.553,0 -1,-0.448 -1,-1c-0.553,0 -1,-0.448 -1,-1c-0.553,0 -1,-0.448 -1,-1v-0.382l-1.447,-0.724c-0.096,-0.048 -0.184,-0.111 -0.26,-0.188l-0.293,-0.292l-0.293,0.293c-0.187,0.188 -0.441,0.293 -0.707,0.293h-1c-0.553,0 -1,-0.448 -1,-1h-1c-0.553,0 -1,-0.448 -1,-1v-1c0,0.552 -0.447,1 -1,1h-1c-0.266,0 -0.52,-0.105 -0.707,-0.293l-0.356,-0.356c-0.142,0.379 -0.508,0.649 -0.937,0.649h-1c0,0.552 -0.447,1 -1,1h-2c-0.553,0 -1,-0.448 -1,-1h-1.586l-0.707,0.707c-0.187,0.188 -0.441,0.293 -0.707,0.293h-0.586l-1.707,1.707c-0.053,0.053 -0.112,0.1 -0.175,0.14l0.718,0.185c0.441,0.114 0.75,0.512 0.75,0.968v2c0,0.552 -0.447,1 -1,1h-0.131l-0.076,0.542c-0.069,0.494 -0.492,0.861 -0.99,0.861h-0.914l-0.889,1.022l1.287,0.75c0.273,0.159 0.455,0.439 0.49,0.754l0.217,1.96c0.031,0.283 -0.06,0.565 -0.249,0.777c-0.189,0.212 -0.461,0.334 -0.745,0.334h-1v1c0.553,0 1,0.448 1,1v0.586l0.707,0.707c0.188,0.187 0.293,0.442 0.293,0.707v0.382l0.158,0.079c0.079,-0.125 0.187,-0.231 0.316,-0.312c0.295,-0.183 0.663,-0.198 0.973,-0.044l2,1c0.339,0.17 0.553,0.516 0.553,0.895v1.382l0.158,0.079c0.152,-0.239 0.404,-0.409 0.701,-0.451l0.26,-0.483c0.175,-0.325 0.513,-0.527 0.881,-0.527h1c0.553,0 1,0.448 1,1v0.586zM21,48c-0.259,0 -0.515,-0.101 -0.707,-0.293l-0.49,-0.49l-1.355,0.678c-0.281,0.141 -0.613,0.141 -0.895,0l-2,-1c-0.339,-0.17 -0.553,-0.516 -0.553,-0.895h-1c-0.347,0 -0.668,-0.18 -0.851,-0.474c-0.183,-0.295 -0.199,-0.663 -0.044,-0.973l0.678,-1.355l-1.49,-1.49c-0.337,-0.337 -0.39,-0.865 -0.125,-1.262l1.545,-2.318l-0.42,-0.42c-0.188,-0.188 -0.293,-0.443 -0.293,-0.708v-1c0,-0.265 0.105,-0.52 0.293,-0.707l1,-1c0.187,-0.188 0.441,-0.293 0.707,-0.293h2.175l0.037,-0.19c0.091,-0.47 0.502,-0.81 0.981,-0.81h1.085c0.329,0 0.638,0.162 0.824,0.434l0.272,0.396l1.099,-0.68c0.297,-0.184 0.663,-0.199 0.974,-0.044l4,2c0.339,0.169 0.553,0.515 0.553,0.894v3c0,0.265 -0.105,0.52 -0.293,0.707l-0.323,0.323l0.354,0.385c0.168,0.185 0.262,0.426 0.262,0.676v1.909c0,0.265 -0.105,0.52 -0.293,0.707l-1,1c-0.187,0.188 -0.441,0.293 -0.707,0.293h-1v1c0,0.379 -0.214,0.725 -0.553,0.895l-2,1c-0.142,0.07 -0.295,0.105 -0.447,0.105zM17,45.382l1,0.5l1.553,-0.776c0.386,-0.19 0.849,-0.117 1.154,0.188l0.49,0.49l0.803,-0.402v-1.382c0,-0.552 0.447,-1 1,-1h1.586l0.414,-0.414v-1.106l-0.737,-0.804c-0.361,-0.395 -0.349,-1.004 0.03,-1.383l0.707,-0.707v-1.968l-2.948,-1.474l-1.435,0.888c-0.455,0.282 -1.049,0.156 -1.351,-0.284l-0.312,-0.453c-0.127,0.415 -0.512,0.705 -0.954,0.705h-2.586l-0.414,0.414v0.172l0.707,0.707c0.337,0.337 0.39,0.865 0.125,1.262l-1.545,2.318l1.42,1.42c0.305,0.304 0.38,0.769 0.188,1.154l-0.277,0.553h0.382c0.553,0 1,0.448 1,1z" fill="#000000"></path><path transform="translate(-26.00745,37.47321) rotate(-50.193)" d="M26,42.595h2v7.81h-2z" fill="#000000"></path><path transform="translate(-20.96544,28.75135) rotate(-33.688)" d="M33.394,48h7.211v2h-7.211z" fill="#000000"></path><path d="M10,55c-0.552,0 -1,0.448 -1,1v2c0,0.552 0.448,1 1,1c0.552,0 1,-0.448 1,-1v-2c0,-0.552 -0.448,-1 -1,-1zM15,55c-0.552,0 -1,0.448 -1,1v2c0,0.552 0.448,1 1,1c0.552,0 1,-0.448 1,-1v-2c0,-0.552 -0.448,-1 -1,-1zM20,59c0.552,0 1,-0.448 1,-1v-2c0,-0.552 -0.448,-1 -1,-1c-0.552,0 -1,0.448 -1,1v2c0,0.552 0.448,1 1,1zM44,59c0.552,0 1,-0.448 1,-1v-2c0,-0.552 -0.448,-1 -1,-1c-0.552,0 -1,0.448 -1,1v2c0,0.552 0.448,1 1,1zM49,59c0.552,0 1,-0.448 1,-1v-2c0,-0.552 -0.448,-1 -1,-1c-0.552,0 -1,0.448 -1,1v2c0,0.552 0.448,1 1,1zM54,59c0.552,0 1,-0.448 1,-1v-2c0,-0.552 -0.448,-1 -1,-1c-0.552,0 -1,0.448 -1,1v2c0,0.552 0.448,1 1,1zM43,51c-0.152,0 -0.305,-0.035 -0.447,-0.105l-2,-1c-0.339,-0.17 -0.553,-0.516 -0.553,-0.895v-0.586l-0.593,-0.592l-1.854,-0.927c-0.339,-0.17 -0.553,-0.516 -0.553,-0.895v-1.909c0,-0.208 0.065,-0.412 0.187,-0.581l0.327,-0.459l-0.333,-0.478c-0.118,-0.168 -0.181,-0.368 -0.181,-0.573v-3c0,-0.379 0.214,-0.725 0.553,-0.895l4,-2c0.263,-0.132 0.567,-0.14 0.837,-0.026l1.552,0.657l0.266,-0.346c0.188,-0.245 0.481,-0.39 0.792,-0.39h1c0.266,0 0.52,0.105 0.707,0.293l0.707,0.707h1.586c0.266,0 0.52,0.105 0.707,0.293l1,1c0.188,0.187 0.293,0.442 0.293,0.707v2c0,0.265 -0.105,0.52 -0.293,0.707l-0.293,0.293l1.293,1.293c0.391,0.391 0.391,1.023 0,1.414l-1.49,1.49l0.678,1.355c0.155,0.31 0.139,0.678 -0.044,0.973c-0.183,0.295 -0.504,0.475 -0.851,0.475h-1c0,0.379 -0.214,0.725 -0.553,0.895l-2,1c-0.281,0.141 -0.613,0.141 -0.895,0l-1.355,-0.678l-0.49,0.49c-0.192,0.192 -0.448,0.293 -0.707,0.293zM44,48c0.152,0 0.305,0.035 0.447,0.105l1.553,0.777l1,-0.5v-0.382c0,-0.552 0.447,-1 1,-1h0.382l-0.276,-0.553c-0.192,-0.385 -0.117,-0.85 0.188,-1.154l1.292,-1.293l-1.293,-1.293c-0.391,-0.391 -0.391,-1.023 0,-1.414l0.707,-0.707v-1.172l-0.414,-0.414h-1.586c-0.266,0 -0.52,-0.105 -0.707,-0.293l-0.707,-0.707h-0.093l-0.437,0.568c-0.276,0.361 -0.764,0.488 -1.183,0.312l-1.839,-0.779l-3.034,1.517v2.067l0.558,0.799c0.243,0.347 0.24,0.809 -0.006,1.154l-0.552,0.773v0.971l1.447,0.724c0.096,0.048 0.184,0.111 0.26,0.188l1,1c0.188,0.186 0.293,0.441 0.293,0.706v0.382l0.803,0.401l0.49,-0.49c0.192,-0.192 0.448,-0.293 0.707,-0.293z" fill="#000000"></path></g></g></svg>